<svg style="display:none" xmlns="http://www.w3.org/2000/svg" xmlns:xlink="http://www.w3.org/1999/xlink" version="1.1">
  <symbol id="arrow_left"
    xmlns="http://www.w3.org/2000/svg" fill="none" viewBox="0 0 24 24" stroke="currentColor">
    <path stroke-linecap="round" stroke-linejoin="round" d="M15.75 19.5L8.25 12l7.5-7.5" />
  </symbol>
  <symbol id="arrow_right"
    xmlns="http://www.w3.org/2000/svg" viewBox="0 0 32 32" fill="currentColor">
    <path fill-rule="evenodd" clip-rule="evenodd" d="M11.057 7.05721C11.5777 6.53651 12.4219 6.53651 12.9426 7.05721L20.9426 15.0572C21.4633 15.5779 21.4633 16.4221 20.9426 16.9428L12.9426 24.9428C12.4219 25.4635 11.5777 25.4635 11.057 24.9428C10.5363 24.4221 10.5363 23.5779 11.057 23.0572L18.1142 16L11.057 8.94283C10.5363 8.42213 10.5363 7.57791 11.057 7.05721Z"/>
  </symbol>
  <symbol id="arrow_down" width="32" height="33" viewBox="0 0 32 33" fill="none"
    xmlns="http://www.w3.org/2000/svg">
    <path d="M8.17674 12.5577L8.17676 12.5577L8.5303 12.2041C8.53031 12.2041 8.53031 12.2041 8.53032 12.2041C8.62794 12.1065 8.78621 12.1065 8.88385 12.2041C8.88385 12.2041 8.88385 12.2041 8.88385 12.2041L15.6464 18.9667L16 19.3202L16.3535 18.9667L23.1161 12.2041C23.2138 12.1064 23.372 12.1064 23.4696 12.2041L23.8232 12.5577C23.9208 12.6553 23.9208 12.8135 23.8232 12.9112L16.1767 20.5577C16.0791 20.6553 15.9209 20.6553 15.8232 20.5577L8.17674 12.9112C8.17674 12.9112 8.17674 12.9112 8.17674 12.9112C8.07911 12.8135 8.07911 12.6553 8.17674 12.5577Z" fill="#18181B" stroke="#18181B" />
  </symbol>
  <symbol id="facebook" width="24" height="25" viewBox="0 0 24 25" fill="none"
    xmlns="http://www.w3.org/2000/svg">
    <path d="M22 12.3311C22 6.77453 17.5229 2.27002 12 2.27002C6.47715 2.27002 2 6.77453 2 12.3311C2 17.3528 5.65684 21.5152 10.4375 22.27V15.2394H7.89844V12.3311H10.4375V10.1145C10.4375 7.59298 11.9305 6.20014 14.2146 6.20014C15.3088 6.20014 16.4531 6.39665 16.4531 6.39665V8.87263H15.1922C13.95 8.87263 13.5625 9.64824 13.5625 10.4439V12.3311H16.3359L15.8926 15.2394H13.5625V22.27C18.3432 21.5152 22 17.353 22 12.3311Z" fill="#18181B" />
  </symbol>
  <symbol id="instagram" width="24" height="25" viewBox="0 0 24 25" fill="none"
    xmlns="http://www.w3.org/2000/svg">
    <path fill-rule="evenodd" clip-rule="evenodd" d="M16 3.27002H8C5.23858 3.27002 3 5.5086 3 8.27002V16.27C3 19.0314 5.23858 21.27 8 21.27H16C18.7614 21.27 21 19.0314 21 16.27V8.27002C21 5.5086 18.7614 3.27002 16 3.27002ZM19.25 16.27C19.2445 18.0626 17.7926 19.5145 16 19.52H8C6.20735 19.5145 4.75549 18.0626 4.75 16.27V8.27002C4.75549 6.47737 6.20735 5.02551 8 5.02002H16C17.7926 5.02551 19.2445 6.47737 19.25 8.27002V16.27ZM16.75 8.52002C17.3023 8.52002 17.75 8.0723 17.75 7.52002C17.75 6.96774 17.3023 6.52002 16.75 6.52002C16.1977 6.52002 15.75 6.96774 15.75 7.52002C15.75 8.0723 16.1977 8.52002 16.75 8.52002ZM12 7.77002C9.51472 7.77002 7.5 9.78474 7.5 12.27C7.5 14.7553 9.51472 16.77 12 16.77C14.4853 16.77 16.5 14.7553 16.5 12.27C16.5027 11.0757 16.0294 9.92959 15.1849 9.0851C14.3404 8.24061 13.1943 7.76736 12 7.77002ZM9.25 12.27C9.25 13.7888 10.4812 15.02 12 15.02C13.5188 15.02 14.75 13.7888 14.75 12.27C14.75 10.7512 13.5188 9.52002 12 9.52002C10.4812 9.52002 9.25 10.7512 9.25 12.27Z" fill="#18181B" />
  </symbol>
  <symbol id="linkedin" width="24" height="25" viewBox="0 0 24 25" fill="none"
    xmlns="http://www.w3.org/2000/svg">
    <path fill-rule="evenodd" clip-rule="evenodd" d="M4.5 3.27002C3.67157 3.27002 3 3.94159 3 4.77002V19.77C3 20.5984 3.67157 21.27 4.5 21.27H19.5C20.3284 21.27 21 20.5984 21 19.77V4.77002C21 3.94159 20.3284 3.27002 19.5 3.27002H4.5ZM8.52076 7.27274C8.52639 8.22899 7.81061 8.81821 6.96123 8.81399C6.16107 8.80977 5.46357 8.17274 5.46779 7.27415C5.47201 6.42899 6.13998 5.74977 7.00764 5.76946C7.88795 5.78915 8.52639 6.43462 8.52076 7.27274ZM12.2797 10.0318H9.75971H9.7583V18.5916H12.4217V18.3919C12.4217 18.012 12.4214 17.632 12.4211 17.2519C12.4203 16.2381 12.4194 15.2232 12.4246 14.2097C12.426 13.9636 12.4372 13.7077 12.5005 13.4728C12.7381 12.5953 13.5271 12.0286 14.4074 12.1679C14.9727 12.2564 15.3467 12.5841 15.5042 13.1171C15.6013 13.4503 15.6449 13.8089 15.6491 14.1563C15.6605 15.2039 15.6589 16.2515 15.6573 17.2992C15.6567 17.669 15.6561 18.039 15.6561 18.4088V18.5902H18.328V18.3849C18.328 17.9329 18.3278 17.481 18.3275 17.0291C18.327 15.8996 18.3264 14.7701 18.3294 13.6402C18.3308 13.1297 18.276 12.6263 18.1508 12.1327C17.9638 11.3986 17.5771 10.7911 16.9485 10.3524C16.5027 10.0402 16.0133 9.83912 15.4663 9.81662C15.404 9.81403 15.3412 9.81064 15.2781 9.80723C14.9984 9.79211 14.7141 9.77675 14.4467 9.83068C13.6817 9.98396 13.0096 10.3341 12.5019 10.9514C12.4429 11.0222 12.3852 11.0941 12.2991 11.2014L12.2797 11.2257V10.0318ZM5.68164 18.5944H8.33242V10.0373H5.68164V18.5944Z" fill="#18181B" />
  </symbol>
  <symbol id="x-twitter" width="24" height="25" viewBox="0 0 24 25" fill="none"
    xmlns="http://www.w3.org/2000/svg">
    <path d="M17.1761 4.27002H19.9362L13.9061 11.0474L21 20.27H15.4456L11.0951 14.6766L6.11723 20.27H3.35544L9.80517 13.0208L3 4.27002H8.69545L12.6279 9.38264L17.1761 4.27002ZM16.2073 18.6454H17.7368L7.86441 5.8093H6.2232L16.2073 18.6454Z" fill="#18181B" />
  </symbol>
  <symbol id="youtube" width="24" height="25" viewBox="0 0 24 25" fill="none"
    xmlns="http://www.w3.org/2000/svg">
    <path d="M21.5928 7.23034C21.4789 6.80775 21.2563 6.42235 20.9472 6.11251C20.6381 5.80267 20.2532 5.5792 19.8308 5.46434C18.2648 5.03434 11.9998 5.02734 11.9998 5.02734C11.9998 5.02734 5.73584 5.02034 4.16884 5.43134C3.74677 5.55149 3.36266 5.77812 3.05341 6.08948C2.74415 6.40084 2.52013 6.78646 2.40284 7.20934C1.98984 8.77534 1.98584 12.0233 1.98584 12.0233C1.98584 12.0233 1.98184 15.2873 2.39184 16.8373C2.62184 17.6943 3.29684 18.3713 4.15484 18.6023C5.73684 19.0323 11.9848 19.0393 11.9848 19.0393C11.9848 19.0393 18.2498 19.0463 19.8158 18.6363C20.2383 18.5217 20.6236 18.2987 20.9335 17.9895C21.2434 17.6803 21.4672 17.2956 21.5828 16.8733C21.9968 15.3083 21.9998 12.0613 21.9998 12.0613C21.9998 12.0613 22.0198 8.79634 21.5928 7.23034ZM9.99584 15.0323L10.0008 9.03234L15.2078 12.0373L9.99584 15.0323Z" fill="#18181B" />
  </symbol>
  <symbol id="link"
    xmlns="http://www.w3.org/2000/svg" width="24" height="24" viewBox="0 0 24 24" fill="none">
    <path fill-rule="evenodd" clip-rule="evenodd" d="M13.2929 4.29278C14.1435 3.4422 15.2971 2.96436 16.5 2.96436C17.7029 2.96436 18.8565 3.4422 19.7071 4.29278C20.5577 5.14336 21.0355 6.29699 21.0355 7.49989C21.0355 8.70279 20.5577 9.85642 19.7071 10.707L15.7105 14.7036C15.2923 15.1294 14.7935 15.4678 14.2433 15.699C13.6913 15.9309 13.0987 16.0504 12.5 16.0504C11.9013 16.0504 11.3087 15.9309 10.7567 15.699C10.2048 15.4671 9.7047 15.1274 9.28571 14.6997C8.8992 14.3053 8.90566 13.6721 9.30015 13.2856C9.69463 12.8991 10.3278 12.9055 10.7143 13.3C10.9471 13.5376 11.2249 13.7263 11.5315 13.8552C11.8381 13.984 12.1674 14.0504 12.5 14.0504C12.8326 14.0504 13.1619 13.984 13.4685 13.8552C13.7751 13.7263 14.0529 13.5376 14.2857 13.3L14.2929 13.2927L14.2929 13.2928L18.2929 9.29278C18.7684 8.81728 19.0355 8.17235 19.0355 7.49989C19.0355 6.82742 18.7684 6.1825 18.2929 5.707C17.8174 5.23149 17.1725 4.96436 16.5 4.96436C15.8275 4.96436 15.1826 5.23149 14.7071 5.707L14.2071 6.207C13.8166 6.59752 13.1834 6.59752 12.7929 6.207C12.4024 5.81647 12.4024 5.18331 12.7929 4.79278L13.2929 4.29278ZM9.75675 8.30085C10.3087 8.06892 10.9013 7.94946 11.5 7.94946C12.0987 7.94946 12.6913 8.06892 13.2433 8.30085C13.7952 8.53277 14.2953 8.87249 14.7143 9.30012C15.1008 9.69461 15.0944 10.3277 14.6999 10.7143C14.3054 11.1008 13.6722 11.0943 13.2857 10.6998C13.053 10.4623 12.7751 10.2735 12.4685 10.1447C12.1619 10.0158 11.8326 9.94946 11.5 9.94946C11.1674 9.94946 10.8382 10.0158 10.5315 10.1447C10.2249 10.2735 9.94707 10.4623 9.7143 10.6998L9.70716 10.7071L9.70712 10.7071L5.70712 14.7071C5.23161 15.1826 4.96448 15.8275 4.96448 16.5C4.96448 17.1724 5.23161 17.8174 5.70712 18.2929C6.18262 18.7684 6.82755 19.0355 7.50001 19.0355C8.17248 19.0355 8.8174 18.7684 9.2929 18.2929L9.7929 17.7929C10.1834 17.4023 10.8166 17.4023 11.2071 17.7929C11.5976 18.1834 11.5976 18.8166 11.2071 19.2071L10.7071 19.7071C9.85654 20.5577 8.70291 21.0355 7.50001 21.0355C6.29711 21.0355 5.14348 20.5577 4.2929 19.7071C3.44233 18.8565 2.96448 17.7029 2.96448 16.5C2.96448 15.2971 3.44233 14.1434 4.2929 13.2929L8.28949 9.29629C8.7077 8.87046 9.20647 8.53208 9.75675 8.30085Z" fill="#0D1717" />
  </symbol>
  <symbol id="linkedin_outline"
    xmlns="http://www.w3.org/2000/svg" width="24" height="24" viewBox="0 0 24 24" fill="none">
    <path fill-rule="evenodd" clip-rule="evenodd" d="M6 5C5.44772 5 5 5.44772 5 6V18C5 18.5523 5.44772 19 6 19H18C18.5523 19 19 18.5523 19 18V6C19 5.44772 18.5523 5 18 5H6ZM3 6C3 4.34315 4.34315 3 6 3H18C19.6569 3 21 4.34315 21 6V18C21 19.6569 19.6569 21 18 21H6C4.34315 21 3 19.6569 3 18V6ZM8 7C8.55228 7 9 7.44772 9 8V8.01C9 8.56228 8.55228 9.01 8 9.01C7.44772 9.01 7 8.56228 7 8.01V8C7 7.44772 7.44772 7 8 7ZM8 10C8.55228 10 9 10.4477 9 11V16C9 16.5523 8.55228 17 8 17C7.44772 17 7 16.5523 7 16V11C7 10.4477 7.44772 10 8 10ZM11 16C11 16.5523 11.4477 17 12 17C12.5523 17 13 16.5523 13 16V13C13 12.7348 13.1054 12.4804 13.2929 12.2929C13.4804 12.1054 13.7348 12 14 12C14.2652 12 14.5196 12.1054 14.7071 12.2929C14.8946 12.4804 15 12.7348 15 13V16C15 16.5523 15.4477 17 16 17C16.5523 17 17 16.5523 17 16V13C17 12.2043 16.6839 11.4413 16.1213 10.8787C15.5587 10.3161 14.7957 10 14 10C13.5483 10 13.1071 10.1019 12.7071 10.2929C12.5261 10.1119 12.2761 10 12 10C11.4477 10 11 10.4477 11 11V16Z" fill="#0D1717" />
  </symbol>
  <symbol id="twitter_outline"
    xmlns="http://www.w3.org/2000/svg" width="24" height="24" viewBox="0 0 24 24" fill="none">
    <path fill-rule="evenodd" clip-rule="evenodd" d="M19.2813 3.88046C19.3669 3.85681 19.4509 3.8338 19.5335 3.81116C20.2553 3.61344 20.8714 3.44467 21.5242 3.12947C21.7013 3.03362 21.9083 2.99044 22.1213 3.01648C22.6229 3.0778 23 3.50373 23 4.00909V4.01009C23 4.10197 22.9874 4.19193 22.9635 4.2779C22.7709 5.02901 22.2634 6.06107 21.8657 6.84155C21.7631 7.04312 21.6686 7.22587 21.582 7.39343C21.483 7.58491 21.3943 7.75655 21.3153 7.91374C21.257 8.02973 21.2129 8.12045 21.1819 8.1879C21.1741 9.48974 20.995 10.7851 20.6491 12.0407L20.6477 12.0455C19.4202 16.4152 16.2063 19.3464 12.313 20.4774L12.3128 20.4774C8.87678 21.4749 4.99799 20.773 1.52141 18.8781C1.11361 18.6559 0.91252 18.1821 1.03594 17.7344C1.15935 17.2866 1.57479 16.9828 2.03887 17.0008C3.44489 17.0556 4.69398 16.7025 5.9483 16.0587C4.65004 15.2564 3.71756 14.3214 3.07823 13.3113C2.19609 11.9176 1.91892 10.455 1.93178 9.15259C1.94456 7.85791 2.24326 6.70513 2.53085 5.88597C2.67562 5.47361 2.82025 5.13826 2.93053 4.9026C2.98576 4.78458 3.03263 4.69102 3.06695 4.62473C3.08411 4.59156 3.09816 4.56517 3.10858 4.54591L3.12143 4.52237L3.12569 4.51468L3.12726 4.51187L3.12791 4.51072C3.12819 4.51022 3.12845 4.50975 3.99998 5.00009L3.12845 4.50975C3.29607 4.21183 3.60425 4.02017 3.94558 4.00157C4.28691 3.98298 4.61409 4.14002 4.81308 4.41797C6.29883 6.49324 8.4944 7.76334 10.9997 7.97267C10.9882 5.8674 12.3126 4.05929 14.2693 3.32659C15.8935 2.7184 17.816 2.64792 19.2813 3.88046ZM4.30038 6.90635C4.10567 7.54242 3.94001 8.32911 3.93168 9.17234C3.92179 10.1741 4.13325 11.2385 4.76818 12.2417C5.40167 13.2426 6.50369 14.2569 8.39961 15.0834C8.73506 15.2297 8.96383 15.5474 8.99609 15.9119C9.02834 16.2765 8.85892 16.6295 8.55437 16.8323C7.60269 17.4663 6.62142 18.0205 5.56919 18.4106C7.72345 19.0399 9.8591 19.1071 11.755 18.5568M4.30038 6.90635C6.31387 8.94807 9.03713 10.0762 12.0255 9.99976C12.5677 9.9859 13 9.54242 13 9.00009V8.00009H13.0001L12.9999 7.98638C12.983 6.7552 13.7461 5.65812 14.9707 5.19959C16.3613 4.67887 17.5142 4.83127 18.2516 5.66332C18.5089 5.95368 18.9109 6.06901 19.283 5.9592C19.4912 5.89775 19.7105 5.83793 19.9378 5.77588C20.024 5.75235 20.1114 5.72851 20.1998 5.70413C20.1615 5.78038 20.1228 5.85696 20.0837 5.93363C19.995 6.10782 19.9024 6.28699 19.8143 6.45757C19.7077 6.66411 19.6075 6.85806 19.5285 7.01532C19.4538 7.16372 19.3839 7.307 19.331 7.42756C19.305 7.48688 19.2761 7.55664 19.2519 7.62764C19.2515 7.62887 19.251 7.63027 19.2505 7.63184C19.2362 7.67356 19.1809 7.83466 19.182 8.02763C19.1885 9.20312 19.0336 10.3739 18.7215 11.5073C17.6905 15.1741 15.0209 17.608 11.7552 18.5567" fill="#0D1717" />
  </symbol>
  <symbol id="facebook_outline"
    xmlns="http://www.w3.org/2000/svg" width="24" height="24" viewBox="0 0 24 24" fill="none">
    <path fill-rule="evenodd" clip-rule="evenodd" d="M10.7574 3.75736C11.8826 2.63214 13.4087 2 15 2H18C18.5523 2 19 2.44772 19 3V7C19 7.55228 18.5523 8 18 8H15V9H18C18.3079 9 18.5987 9.14187 18.7882 9.38459C18.9777 9.6273 19.0448 9.94379 18.9701 10.2425L17.9701 14.2425C17.8589 14.6877 17.4589 15 17 15H15V21C15 21.5523 14.5523 22 14 22H10C9.44772 22 9 21.5523 9 21V15H7C6.44772 15 6 14.5523 6 14V10C6 9.44771 6.44772 9 7 9H9V8C9 6.4087 9.63214 4.88258 10.7574 3.75736ZM15 4C13.9391 4 12.9217 4.42143 12.1716 5.17157C11.4214 5.92172 11 6.93913 11 8V10C11 10.5523 10.5523 11 10 11H8V13H10C10.5523 13 11 13.4477 11 14V20H13V14C13 13.4477 13.4477 13 14 13H16.2192L16.7192 11H14C13.4477 11 13 10.5523 13 10V8C13 7.46957 13.2107 6.96086 13.5858 6.58579C13.9609 6.21071 14.4696 6 15 6H17V4H15Z" fill="#0D1717" />
  </symbol>
</svg>